<?xml version="1.0" standalone="no"?>
<!DOCTYPE svg PUBLIC "-//W3C//DTD SVG 20010904//EN"
 "http://www.w3.org/TR/2001/REC-SVG-20010904/DTD/svg10.dtd">
<svg version="1.0" xmlns="http://www.w3.org/2000/svg"
 width="467.000000pt" height="266.000000pt" viewBox="0 0 467.000000 266.000000"
 preserveAspectRatio="xMidYMid meet">

<g transform="translate(0.000000,266.000000) scale(0.100000,-0.100000)"
fill="#000000" stroke="none">
<path d="M2031 2099 c-85 -14 -225 -65 -333 -120 -54 -28 -97 -53 -95 -56 6
-5 -63 -73 -74 -73 -15 0 -10 -78 6 -94 9 -8 53 -29 100 -47 l84 -32 -23 -46
c-52 -104 -89 -261 -102 -433 -5 -76 -4 -98 6 -98 9 0 11 -10 6 -32 -4 -25 -3
-29 4 -18 9 12 10 10 8 -9 -2 -19 5 -31 31 -48 19 -13 40 -23 47 -23 7 0 51
29 98 64 65 50 86 61 90 50 3 -9 11 -12 17 -8 8 4 9 3 5 -5 -8 -13 32 -74 44
-66 4 3 27 -19 50 -47 l42 -53 -46 50 c-25 27 -46 45 -46 39 0 -12 100 -110
170 -166 74 -59 190 -127 208 -121 11 5 13 3 7 -7 -5 -8 -4 -11 2 -7 15 9 74
-3 67 -14 -5 -9 32 3 67 21 10 6 19 21 19 33 0 17 -2 19 -9 8 -8 -12 -18 -11
-62 8 -52 21 -149 79 -149 88 0 10 47 -11 88 -39 67 -44 84 -42 98 12 l12 45
7 -43 c4 -23 10 -40 13 -38 2 3 -1 41 -8 84 l-12 79 -72 6 c-123 11 -197 44
-224 99 -20 43 1 73 78 112 l67 33 -51 18 c-71 25 -176 80 -214 113 -28 23
-33 37 -43 102 -6 41 -9 115 -6 165 5 89 5 89 43 122 71 61 176 126 241 150
128 46 173 79 173 126 0 95 -211 152 -429 116z m127 -6 c-10 -2 -26 -2 -35 0
-10 3 -2 5 17 5 19 0 27 -2 18 -5z m59 1 c-3 -3 -12 -4 -19 -1 -8 3 -5 6 6 6
11 1 17 -2 13 -5z m-182 -14 c-16 -4 -39 -8 -50 -8 -16 0 -15 2 5 8 14 4 36 8
50 8 22 0 22 -1 -5 -8z m386 -47 l24 -28 -30 25 c-16 14 -32 26 -34 28 -2 1 0
2 6 2 5 0 20 -12 34 -27z m-80 -9 c48 -28 74 -67 61 -91 -11 -20 -122 -68
-122 -53 0 4 -13 13 -29 20 -17 7 -38 29 -52 54 -30 57 -62 70 -151 63 -83 -7
-83 -3 -2 18 82 21 251 14 295 -11z m-612 -142 c-13 -11 -46 -31 -72 -47 -27
-15 -51 -34 -54 -42 -3 -8 7 -27 23 -44 15 -16 22 -29 16 -29 -25 0 -92 33
-92 45 0 18 73 76 135 108 59 31 77 34 44 9z m243 -84 c9 -7 17 -22 18 -33 4
-39 0 -88 -7 -82 -3 4 -6 20 -5 37 0 16 -4 30 -9 30 -17 0 -53 -22 -77 -47
-14 -15 -29 -22 -40 -19 -14 5 -28 -9 -59 -56 -23 -35 -48 -79 -57 -98 -10
-22 -14 -26 -10 -10 21 91 125 247 181 272 46 21 45 21 65 6z m-10 -439 c26
-17 48 -35 48 -40 0 -9 -28 -1 -48 14 -9 7 -16 7 -24 -1 -8 -8 -8 -26 2 -67
11 -46 11 -58 1 -64 -16 -10 34 -112 87 -181 29 -38 26 -36 -24 15 -61 62 -64
68 -109 170 -29 64 -31 139 -5 170 16 20 16 20 72 -16z m-271 -261 l-9 -33 -1
45 c0 25 3 56 7 70 6 23 7 22 10 -12 2 -20 -1 -51 -7 -70z m57 -68 l27 10 -29
-25 c-34 -31 -50 -28 -54 10 -3 26 -2 27 13 12 12 -13 22 -14 43 -7z"/>
<path d="M2270 1910 c0 -5 5 -10 10 -10 6 0 10 5 10 10 0 6 -4 10 -10 10 -5 0
-10 -4 -10 -10z"/>
<path d="M2715 1590 c-3 -5 -1 -10 4 -10 6 0 11 5 11 10 0 6 -2 10 -4 10 -3 0
-8 -4 -11 -10z"/>
<path d="M2400 515 c0 -35 16 -47 26 -20 4 9 19 15 35 15 l29 0 0 -110 c0 -91
-3 -110 -15 -110 -8 0 -15 -7 -15 -15 0 -12 13 -15 60 -15 47 0 60 3 60 15 0
8 -7 15 -15 15 -12 0 -15 19 -15 110 l0 110 29 0 c16 0 31 -6 35 -15 10 -27
26 -15 26 20 l0 35 -120 0 -120 0 0 -35z"/>
<path d="M2660 535 c0 -8 6 -15 14 -15 8 0 35 -34 60 -75 48 -80 61 -140 31
-151 -8 -4 -15 -12 -15 -20 0 -10 15 -14 55 -14 42 0 55 3 55 15 0 8 -7 15
-15 15 -11 0 -15 11 -15 42 0 31 10 59 41 111 22 37 47 71 55 74 8 3 14 11 14
19 0 10 -14 14 -51 14 -50 0 -51 0 -45 -27 3 -19 -3 -43 -18 -73 l-24 -44 -27
54 c-18 35 -23 56 -16 58 6 2 11 10 11 18 0 10 -14 14 -55 14 -42 0 -55 -3
-55 -15z"/>
<path d="M2970 537 c0 -8 7 -17 15 -21 12 -4 15 -26 15 -111 0 -85 -3 -107
-15 -111 -8 -4 -15 -12 -15 -20 0 -10 15 -14 55 -14 42 0 55 3 55 15 0 8 -7
15 -15 15 -10 0 -15 11 -15 35 0 32 2 35 30 35 42 0 96 24 109 48 18 34 13 79
-13 109 -23 26 -30 28 -115 31 -76 3 -91 1 -91 -11z m164 -43 c38 -37 4 -94
-56 -94 -27 0 -28 2 -28 55 l0 55 34 0 c19 0 42 -7 50 -16z"/>
<path d="M3220 535 c0 -8 7 -15 15 -15 12 0 15 -19 15 -115 0 -96 -3 -115 -15
-115 -8 0 -15 -7 -15 -15 0 -12 19 -15 110 -15 l110 0 0 35 c0 24 -5 35 -15
35 -8 0 -15 -7 -15 -15 0 -11 -12 -15 -50 -15 l-50 0 0 45 0 45 50 0 c38 0 50
4 50 15 0 11 -12 15 -50 15 l-50 0 0 45 0 45 50 0 c38 0 50 -4 50 -15 0 -8 7
-15 15 -15 10 0 15 11 15 35 l0 35 -110 0 c-91 0 -110 -3 -110 -15z"/>
<path d="M1240 526 c0 -8 9 -18 20 -21 18 -6 20 -15 20 -110 0 -94 -2 -105
-20 -115 -42 -22 -18 -30 90 -30 l110 0 0 30 c0 20 -5 30 -15 30 -8 0 -15 -4
-15 -10 0 -5 -22 -10 -50 -10 l-50 0 0 105 c0 85 3 107 15 111 8 4 15 12 15
20 0 10 -15 14 -60 14 -45 0 -60 -3 -60 -14z"/>
<path d="M1543 520 c-90 -55 -83 -213 12 -259 102 -49 215 19 215 131 0 94
-53 148 -145 148 -32 0 -62 -7 -82 -20z m143 -43 c20 -18 28 -35 32 -75 4 -47
2 -54 -26 -82 -65 -65 -162 -21 -162 75 0 38 5 52 29 76 37 37 88 39 127 6z"/>
<path d="M1874 530 c-11 -4 -32 -22 -47 -39 -69 -83 -29 -213 74 -241 38 -11
70 -7 122 12 25 10 27 14 27 69 l0 59 -45 0 c-38 0 -45 -3 -45 -20 0 -13 7
-20 20 -20 15 0 20 -7 20 -29 0 -24 -5 -29 -31 -35 -39 -7 -94 15 -110 46 -7
12 -12 43 -12 67 0 37 5 49 31 73 23 19 43 28 68 28 42 0 74 -15 74 -35 0 -8
7 -15 15 -15 10 0 15 11 15 35 0 29 -5 37 -26 45 -31 12 -121 12 -150 0z"/>
<path d="M2155 530 c-46 -19 -85 -83 -85 -141 0 -44 36 -106 73 -126 17 -9 52
-17 77 -17 153 0 205 209 70 279 -31 16 -102 19 -135 5z m108 -42 c36 -19 46
-40 47 -96 0 -68 -29 -102 -87 -102 -50 0 -80 22 -94 69 -28 93 54 172 134
129z"/>
</g>
</svg>
